<?xml version="1.0" encoding="iso-8859-1"?>
<!-- Uploaded to: SVG Repo, www.svgrepo.com, Generator: SVG Repo Mixer Tools -->
<svg version="1.1" id="Layer_1" xmlns="http://www.w3.org/2000/svg" xmlns:xlink="http://www.w3.org/1999/xlink" 
	 viewBox="0 0 505 505" xml:space="preserve">
<circle style="fill:#324A5E;" cx="252.5" cy="252.5" r="252.5"/>
<g>
	<rect x="359.7" y="195.3" style="fill:#ACB3BA;" width="25.4" height="45.9"/>
	<rect x="401.1" y="182.8" style="fill:#ACB3BA;" width="25.4" height="58.4"/>
	<rect x="318.3" y="206.7" style="fill:#ACB3BA;" width="25.4" height="34.5"/>
</g>
<path style="fill:#CED5E0;" d="M432,234.1H195.6V271H432c10.2,0,18.4-8.3,18.4-18.4C450.4,242.3,442.2,234.1,432,234.1z"/>
<path style="fill:#ACB3BA;" d="M133.1,331c-43.3,0-78.5-35.2-78.5-78.5S89.8,174,133.1,174s78.5,35.2,78.5,78.5S176.3,331,133.1,331
	z M133.1,210.9c-22.9,0-41.6,18.6-41.6,41.6c0,22.9,18.6,41.6,41.6,41.6c22.9,0,41.6-18.6,41.6-41.6
	C174.6,229.6,156,210.9,133.1,210.9z"/>
</svg>